<?xml version="1.0" encoding="UTF-8"?>
<svg id="Lockups" xmlns="http://www.w3.org/2000/svg" width="400" height="91.13" viewBox="0 0 400 91.13">
  <defs>
    <style>
      .cls-1 {
        fill: #6a0032;
      }

      .cls-2 {
        fill: #fff;
      }

      .cls-3 {
        fill: #690b33;
      }
    </style>
  </defs>
  <g>
    <path class="cls-3" d="M102.59,86.92c0-2.4,1.8-4.37,4.63-4.37,1.64,0,2.57,.54,3.13,.97l-.7,1.84c-.59-.48-1.35-.79-2.21-.79-1.49,0-2.38,1.03-2.38,2.32s.87,2.24,2.43,2.24c1.11,0,1.91-.55,2.39-.96l.73,1.71c-.44,.45-1.6,1.26-3.37,1.26-3.23,0-4.64-2.01-4.64-4.22Z" />
    <path class="cls-3" d="M114.57,87.62v1.38h4.33v1.98h-6.62v-8.28h6.42v1.98h-4.13v1.25h3.57v1.7h-3.57Z" />
    <path class="cls-3" d="M126.68,82.7h2.29v8.28h-2.2l-3.89-4.76h-.03s.1,1.12,.1,1.7v3.06h-2.29v-8.28h2.24l3.84,4.68h.03s-.09-1.11-.09-1.59v-3.1Z" />
    <path class="cls-3" d="M133.33,84.71h-2.81v-2.01h7.92v2.01h-2.82v6.27h-2.29v-6.27Z" />
    <path class="cls-3" d="M140,82.7h3.49c2.42,0,3.51,1.17,3.51,2.83,0,.97-.38,1.84-1.25,2.3v.04l1.79,3.11h-2.54l-1.59-2.71h-1.12v2.71h-2.29v-8.28Zm3.36,3.94c.97,0,1.38-.31,1.38-1.03,0-.57-.29-1.01-1.32-1.01h-1.13v2.04h1.07Z" />
    <path class="cls-3" d="M154.45,82.7l3.41,8.28h-2.57l-.65-1.64h-3.12l-.64,1.64h-2.57l3.41-8.28h2.73Zm-2.4,4.96h2.06l-.42-1.02c-.19-.48-.58-1.77-.58-1.77h-.08s-.39,1.28-.58,1.77l-.42,1.02Z" />
    <path class="cls-3" d="M161.65,82.7v6.27h4.01v2.01h-6.31v-8.28h2.29Z" />
    <path class="cls-3" d="M173.93,87.4c-.21-.33-.84-1.45-.84-1.45h-.04s.11,1.31,.11,1.74v3.3h-2.29v-8.28h2.37l2.39,3.67h.03l2.38-3.67h2.37v8.28h-2.29v-3.3c0-.43,.1-1.72,.1-1.72h-.04s-.63,1.11-.84,1.43l-1.52,2.37h-.33l-1.55-2.37Z" />
    <path class="cls-3" d="M184.92,82.7v8.28h-2.29v-8.28h2.29Z" />
    <path class="cls-3" d="M186.68,86.92c0-2.4,1.8-4.37,4.63-4.37,1.64,0,2.57,.54,3.13,.97l-.7,1.84c-.59-.48-1.35-.79-2.21-.79-1.49,0-2.38,1.03-2.38,2.32s.87,2.24,2.43,2.24c1.11,0,1.91-.55,2.39-.96l.73,1.71c-.44,.45-1.6,1.26-3.37,1.26-3.23,0-4.64-2.01-4.64-4.22Z" />
    <path class="cls-3" d="M198.67,82.7v3.03h3.2v-3.03h2.29v8.28h-2.29v-3.23h-3.2v3.23h-2.29v-8.28h2.29Z" />
    <path class="cls-3" d="M208.68,82.7v8.28h-2.29v-8.28h2.29Z" />
    <path class="cls-3" d="M212.8,86.95c0,1.41,.89,2.22,1.95,2.22,.74,0,1.36-.26,1.59-.5v-.59h-1.38v-1.64h3.67v4.54h-1.51l-.37-.79h-.06c-.53,.69-1.3,.94-2.19,.94-2.52,0-4.05-1.81-4.05-4.18,0-2.49,1.8-4.4,4.61-4.4,1.69,0,2.74,.49,3.31,.91l-.57,1.86c-.6-.39-1.46-.76-2.55-.76-1.59,0-2.44,1.04-2.44,2.39Z" />
    <path class="cls-3" d="M226.17,82.7l3.41,8.28h-2.57l-.65-1.64h-3.12l-.64,1.64h-2.57l3.41-8.28h2.73Zm-2.4,4.96h2.06l-.42-1.02c-.19-.48-.58-1.77-.58-1.77h-.08s-.39,1.28-.58,1.77l-.42,1.02Z" />
    <path class="cls-3" d="M237.09,82.7h2.29v8.28h-2.2l-3.89-4.76h-.03s.1,1.12,.1,1.7v3.06h-2.29v-8.28h2.24l3.84,4.68h.03s-.09-1.11-.09-1.59v-3.1Z" />
    <path class="cls-3" d="M253.23,82.7v4.87c0,2.42-1.74,3.56-4,3.56s-4.01-1.14-4.01-3.56v-4.87h2.3v4.74c0,1.04,.55,1.67,1.71,1.67s1.71-.63,1.71-1.67v-4.74h2.29Z" />
    <path class="cls-3" d="M261.44,82.7h2.29v8.28h-2.2l-3.89-4.76h-.03s.1,1.12,.1,1.7v3.06h-2.29v-8.28h2.24l3.84,4.68h.03s-.09-1.11-.09-1.59v-3.1Z" />
    <path class="cls-3" d="M268.24,82.7v8.28h-2.29v-8.28h2.29Z" />
    <path class="cls-3" d="M269.74,82.7h2.64l1.51,3.7c.16,.43,.48,1.59,.48,1.59h.06s.31-1.16,.48-1.59l1.5-3.7h2.66l-3.4,8.28h-2.54l-3.39-8.28Z" />
    <path class="cls-3" d="M282.87,87.62v1.38h4.33v1.98h-6.62v-8.28h6.42v1.98h-4.13v1.25h3.57v1.7h-3.57Z" />
    <path class="cls-3" d="M288.96,82.7h3.49c2.42,0,3.51,1.17,3.51,2.83,0,.97-.38,1.84-1.25,2.3v.04l1.79,3.11h-2.54l-1.59-2.71h-1.12v2.71h-2.29v-8.28Zm3.36,3.94c.97,0,1.38-.31,1.38-1.03,0-.57-.29-1.01-1.32-1.01h-1.13v2.04h1.07Z" />
    <path class="cls-3" d="M297.69,90.53l.33-1.84c.65,.28,1.72,.59,2.74,.59,1.12,0,1.56-.39,1.56-.91,0-.25-.11-.43-.38-.54-.26-.11-.88-.19-1.59-.28-.74-.09-1.4-.25-1.85-.52-.7-.42-.97-1.17-.97-1.85,0-1.59,1.41-2.64,3.52-2.64,1.17,0,2.24,.23,3.01,.57l-.39,1.76c-.62-.24-1.6-.48-2.52-.48-1.03,0-1.33,.4-1.33,.79,0,.21,.08,.42,.38,.53,.34,.11,.93,.16,1.57,.26,.72,.1,1.37,.24,1.79,.49,.68,.39,1.02,1.07,1.02,1.88,0,1.56-1.08,2.78-3.56,2.78-1.32,0-2.5-.24-3.34-.6Z" />
    <path class="cls-3" d="M308.65,82.7v8.28h-2.29v-8.28h2.29Z" />
    <path class="cls-3" d="M313,84.71h-2.81v-2.01h7.92v2.01h-2.82v6.27h-2.29v-6.27Z" />
    <path class="cls-3" d="M324.77,90.98h-2.29v-3.18l-3.28-5.1h2.62l1.21,1.81c.11,.19,.58,1.15,.58,1.15h.04s.5-.96,.62-1.15l1.2-1.81h2.63l-3.31,5.1v3.18Z" />
  </g>
  <g>
    <path class="cls-3" d="M110.63,30.91v2.2h9.85v5.88h-17.18V18.29h16.77v5.92h-9.44v2.01h7.96v4.69h-7.96Z" />
    <path class="cls-3" d="M131.18,18.29c9.19,0,12.62,4.5,12.62,10.32,0,6.92-4.25,10.38-11.52,10.38h-8.91V18.29h7.8Zm-.47,14.29h1.83c2.68,0,3.93-1.2,3.93-3.96,0-2.14-1.1-3.9-4.28-3.9h-1.48v7.87Z" />
    <path class="cls-3" d="M167.49,18.29v11.83c0,6.26-4.34,9.25-10.48,9.25s-10.51-2.99-10.51-9.25v-11.83h7.36v11.33c0,2.14,1.01,3.34,3.15,3.34s3.15-1.2,3.15-3.34v-11.33h7.33Z" />
    <path class="cls-3" d="M170.16,28.83c0-6.01,4.47-10.92,11.9-10.92,3.87,0,6.36,1.16,7.74,2.11l-1.83,5.92c-1.26-.94-3.05-1.61-4.94-1.61-2.99,0-4.81,1.95-4.81,4.37s1.67,4.25,4.88,4.25c2.33,0,4.25-1.1,5.29-1.89l1.95,5.63c-1.07,.98-4,2.67-8.28,2.67-8.43,0-11.9-5.19-11.9-10.54Z" />
    <path class="cls-3" d="M209.28,18.29l8.09,20.71h-8.34l-1.13-3.24h-6.86l-1.1,3.24h-8.34l8.09-20.71h9.6Zm-6.7,12.08h3.81l-.72-1.95c-.38-1.13-1.07-3.78-1.07-3.78h-.25s-.69,2.61-1.07,3.78l-.69,1.95Z" />
    <path class="cls-3" d="M221.71,24.71h-6.29v-6.42h19.92v6.42h-6.29v14.29h-7.33v-14.29Z" />
    <path class="cls-3" d="M245.15,18.29v20.71h-7.33V18.29h7.33Z" />
    <path class="cls-3" d="M271.52,28.51c0,6.23-4.56,10.86-11.8,10.86s-11.83-4.31-11.83-10.86c0-6.01,4.88-10.6,11.83-10.6s11.8,4.59,11.8,10.6Zm-15.8,.06c0,2.61,1.73,4.09,4,4.09s3.97-1.48,3.97-4.09c0-2.36-1.7-3.97-3.97-3.97s-4,1.6-4,3.97Z" />
    <path class="cls-3" d="M289.08,18.29h7.33v20.71h-7.11l-7.87-9.5-.06,.03s.22,2.3,.22,3.62v5.85h-7.33V18.29h7.33l7.62,9.22,.06-.03s-.19-2.2-.19-3.4v-5.79Z" />
    <path class="cls-3" d="M307.49,32.86c0-2.49,1.57-4.66,4.44-5.66v-.03c-1.35-1.38-1.89-2.55-1.89-4,0-2.64,2.49-5.26,7.58-5.26s7.77,2.49,7.77,5.32c0,2.11-1.23,3.97-3.93,5.26v.03l1.64,1.64h.03c.76-.88,1.38-1.95,1.86-2.99h5.32v5.38h-2.68c-.22,.47-.57,1.04-.85,1.42v.03l4.88,5h-8.24l-1.26-1.26h-.03c-1.6,1.01-3.78,1.64-6.07,1.64-5.82,0-8.56-3.15-8.56-6.51Zm10.57,.66v-.03l-2.77-2.83h-.03c-.79,.38-1.1,1.01-1.1,1.7,0,.76,.69,1.67,2.14,1.67,.76,0,1.48-.22,1.76-.5Zm.09-8.5c.69-.38,1.32-1.04,1.32-1.89,0-.54-.44-1.23-1.38-1.23s-1.35,.6-1.35,1.13c0,.38,.19,.82,.79,1.42l.57,.57h.06Z" />
    <path class="cls-3" d="M110.63,45.68v6.99h6.01v-6.99h7.33v20.71h-7.33v-7.3h-6.01v7.3h-7.33v-20.71h7.33Z" />
    <path class="cls-3" d="M148.48,45.68v11.83c0,6.26-4.34,9.25-10.48,9.25s-10.51-2.99-10.51-9.25v-11.83h7.36v11.33c0,2.14,1.01,3.34,3.15,3.34s3.15-1.2,3.15-3.34v-11.33h7.33Z" />
    <path class="cls-3" d="M160.91,59.12c-.57-.79-1.73-2.86-1.73-2.86l-.09,.03s.22,2.55,.22,3.62v6.48h-7.33v-20.71h7.49l5.07,7.4h.06l5.04-7.4h7.49v20.71h-7.33v-6.48c0-1.07,.19-3.62,.19-3.62l-.09-.03s-1.16,2.08-1.7,2.86l-3.21,4.75h-.82l-3.24-4.75Z" />
    <path class="cls-3" d="M197.07,45.68l8.09,20.71h-8.34l-1.13-3.24h-6.86l-1.1,3.24h-8.34l8.09-20.71h9.6Zm-6.7,12.08h3.81l-.72-1.95c-.38-1.13-1.07-3.78-1.07-3.78h-.25s-.69,2.61-1.07,3.78l-.69,1.95Z" />
    <path class="cls-3" d="M222.24,45.68h7.33v20.71h-7.11l-7.87-9.5-.06,.03s.22,2.3,.22,3.62v5.85h-7.33v-20.71h7.33l7.62,9.22,.06-.03s-.19-2.2-.19-3.4v-5.79Z" />
    <path class="cls-3" d="M241.18,65.44l.72-5.76c1.64,.63,4.34,1.35,6.86,1.35,2.33,0,3.08-.6,3.08-1.42,0-.44-.19-.72-.76-.88-.57-.16-2.14-.28-3.81-.5-1.64-.19-3.3-.63-4.34-1.29-1.67-1.04-2.3-2.99-2.3-4.66,0-4.31,3.75-6.99,9.41-6.99,2.93,0,5.79,.57,7.71,1.38l-.94,5.48c-1.57-.57-4-1.1-6.39-1.1-1.92,0-2.45,.6-2.45,1.26,0,.38,.16,.72,.72,.85,.91,.22,2.49,.31,3.93,.53,1.64,.22,3.08,.6,4.09,1.23,1.61,.98,2.42,2.67,2.42,4.59,0,4.06-2.49,7.24-9.35,7.24-3.3,0-6.58-.57-8.62-1.32Z" />
    <path class="cls-3" d="M269.25,58.3v2.2h9.85v5.88h-17.18v-20.71h16.77v5.92h-9.44v2.01h7.96v4.69h-7.96Z" />
    <path class="cls-3" d="M282,45.68h9.76c6.39,0,9.35,3.05,9.35,7.55,0,2.58-.91,4.66-2.8,5.88v.09l3.68,7.17h-8.06l-3.05-5.85h-1.54v5.85h-7.33v-20.71Zm9.44,9.85c1.79,0,2.55-.63,2.55-1.98,0-1.04-.54-1.92-2.49-1.92h-2.17v3.9h2.11Z" />
    <path class="cls-3" d="M302.01,45.68h8.62l2.74,7.11c.41,1.1,1.16,4.06,1.16,4.06h.13s.79-2.96,1.16-4.06l2.74-7.11h8.62l-8.24,20.71h-8.72l-8.21-20.71Z" />
    <path class="cls-3" d="M336.78,45.68v20.71h-7.33v-20.71h7.33Z" />
    <path class="cls-3" d="M339.52,56.22c0-6.01,4.47-10.92,11.9-10.92,3.87,0,6.36,1.16,7.74,2.11l-1.83,5.92c-1.26-.94-3.05-1.61-4.94-1.61-2.99,0-4.81,1.95-4.81,4.37s1.67,4.25,4.88,4.25c2.33,0,4.25-1.1,5.29-1.89l1.95,5.63c-1.07,.98-4,2.68-8.28,2.68-8.43,0-11.9-5.19-11.9-10.54Z" />
    <path class="cls-3" d="M369.57,58.3v2.2h9.85v5.88h-17.18v-20.71h16.77v5.92h-9.44v2.01h7.96v4.69h-7.96Z" />
    <path class="cls-3" d="M382.03,65.44l.72-5.76c1.64,.63,4.34,1.35,6.86,1.35,2.33,0,3.08-.6,3.08-1.42,0-.44-.19-.72-.76-.88-.57-.16-2.14-.28-3.81-.5-1.64-.19-3.3-.63-4.34-1.29-1.67-1.04-2.3-2.99-2.3-4.66,0-4.31,3.75-6.99,9.41-6.99,2.93,0,5.79,.57,7.71,1.38l-.94,5.48c-1.57-.57-4-1.1-6.39-1.1-1.92,0-2.45,.6-2.45,1.26,0,.38,.16,.72,.72,.85,.91,.22,2.49,.31,3.93,.53,1.64,.22,3.08,.6,4.09,1.23,1.61,.98,2.42,2.67,2.42,4.59,0,4.06-2.49,7.24-9.35,7.24-3.3,0-6.58-.57-8.62-1.32Z" />
  </g>
  <g>
    <path class="cls-3" d="M102.66,4.91c0-2.7,2.05-4.91,4.98-4.91,2.02,0,2.95,.76,3.62,1.35l-.75,1.08c-.84-.74-1.76-1.18-2.96-1.18-2.19,0-3.51,1.63-3.51,3.67s1.35,3.5,3.62,3.5c1.59,0,2.53-.84,3.2-1.44l.74,.95c-.52,.62-1.78,1.74-3.94,1.74-3.36,0-5.01-2.12-5.01-4.74Z" />
    <path class="cls-3" d="M122.51,4.77c0,2.8-2.02,4.88-4.96,4.88s-4.96-1.94-4.96-4.88c0-2.7,2.18-4.77,4.96-4.77s4.96,2.07,4.96,4.77Zm-8.47,0c0,2.32,1.53,3.64,3.51,3.64s3.51-1.32,3.51-3.64c0-2.11-1.52-3.53-3.51-3.53s-3.51,1.42-3.51,3.53Z" />
    <path class="cls-3" d="M125.81,.17V8.24h5.27v1.25h-6.66V.17h1.39Z" />
    <path class="cls-3" d="M133.95,.17V8.24h5.27v1.25h-6.66V.17h1.39Z" />
    <path class="cls-3" d="M142.09,5.28v2.96h5.62v1.25h-7.01V.17h6.73V1.42h-5.34v2.7h4.77v1.16h-4.77Z" />
    <path class="cls-3" d="M150.12,4.89c0,2.18,1.54,3.53,3.26,3.53,1.3,0,2.41-.57,2.8-.95v-1.67h-2.59v-1.16h3.98v4.86h-.98l-.38-1.09h-.1c-.69,1.01-1.54,1.26-2.73,1.26-3,0-4.67-2.11-4.67-4.77,0-2.85,2-4.89,4.9-4.89,1.94,0,3,.71,3.67,1.32l-.67,1.08c-.91-.69-1.76-1.15-3-1.15-2.21,0-3.48,1.54-3.48,3.64Z" />
    <path class="cls-3" d="M161.51,5.28v2.96h5.62v1.25h-7.01V.17h6.73V1.42h-5.34v2.7h4.77v1.16h-4.77Z" />
    <path class="cls-3" d="M181.43,4.77c0,2.8-2.02,4.88-4.96,4.88s-4.96-1.94-4.96-4.88c0-2.7,2.18-4.77,4.96-4.77s4.96,2.07,4.96,4.77Zm-8.47,0c0,2.32,1.53,3.64,3.51,3.64s3.51-1.32,3.51-3.64c0-2.11-1.52-3.53-3.51-3.53s-3.51,1.42-3.51,3.53Z" />
    <path class="cls-3" d="M184.73,5.51v3.98h-1.39V.17h6.7V1.42h-5.31v2.93h4.63v1.16h-4.63Z" />
  </g>
  <g>
    <path class="cls-1" d="M13.31,71.02l.53,.69c.84,.97,1.73,1.9,2.67,2.78,.04,.03,.08,.05,.12,.07,.03,.02,.05,.04,.08,.05l58.84-16.33,.73-4.74L13.31,71.02Z" />
    <polygon class="cls-2" points="48.01 21.45 55.95 19.25 55.78 21.16 49.38 22.94 45.71 47.78 44.01 48.35 48.01 21.45" />
    <polygon class="cls-2" points="55.59 31.06 75.3 25.59 77.7 11.29 76.18 10.71 73.94 24.15 55.87 29.16 55.59 31.06" />
    <polygon class="cls-2" points="73.1 32.21 74.73 31.75 72.57 46.54 61.35 55.65 31.46 63.95 23.57 60.87 23.83 59.33 31.22 62.15 59.89 54.19 71.27 45.13 73.1 32.21" />
    <polygon class="cls-2" points="11.1 48.08 10.77 49.91 23.83 46.29 24.1 44.47 11.1 48.08" />
    <polygon class="cls-2" points="14.34 55.43 14.02 57.26 22.48 54.91 22.77 53.09 14.34 55.43" />
    <path class="cls-2" d="M77.23,56.3l-.43,2.83-58.79,16.32c.58,.4,1.11,.86,1.57,1.38l58.6-16.26,.73-4.73-1.69,.47Z" />
    <polygon class="cls-2" points="14.53 32.74 14.2 34.57 26.23 31.23 26.52 29.41 14.53 32.74" />
    <polygon class="cls-1" points="22.75 53.17 31.61 50.71 31.8 49.49 11.73 55.06 12.24 51.76 23.45 48.64 24.08 44.55 37.39 40.85 37.61 39.43 8.47 47.52 9.19 42.85 25.02 38.46 26.45 29.5 32.43 27.85 32.65 26.47 11.82 32.25 12.27 29.5 27.03 25.41 27.52 22.21 37.18 13.2 65.55 5.33 75.11 9 72.7 23.34 52.94 28.83 54.49 18.49 46.74 20.64 42.75 47.8 50.24 45.72 51.96 35.07 72.11 29.48 70.01 44.31 58.65 53.38 31.26 60.98 22.06 57.37 22.75 53.17" />
    <path class="cls-1" d="M79.43,18.88l-.79,4.73c3.35,5.88,5.27,12.68,5.27,19.93,0,22.29-18.07,40.36-40.36,40.36S3.18,65.83,3.18,43.54,21.25,3.18,43.54,3.18c4.2,0,8.26,.64,12.07,1.84l5.2-1.46c-5.29-2.29-11.13-3.56-17.27-3.56C19.49,0,0,19.49,0,43.54s19.49,43.54,43.54,43.54,43.54-19.49,43.54-43.54c0-9.16-2.83-17.65-7.66-24.67Z" />
  </g>
</svg>